<svg xmlns="http://www.w3.org/2000/svg" viewBox="0 0 432 100" width="432" height="100">
  <g transform="translate(0,8) scale(0.7000)"><g>
  <defs>
    <clipPath id="railR"><rect x="72" y="14" width="10" height="92" rx="4"/></clipPath>
  </defs>
  <rect width="120" height="120" rx="27" fill="#0F1D30"/>
  <g fill="#54637C">
    <rect x="24" y="22" width="72" height="9" rx="3"/>
    <rect x="24" y="47" width="72" height="9" rx="3"/>
    <rect x="24" y="72" width="72" height="9" rx="3"/>
    <rect x="24" y="97" width="72" height="9" rx="3"/>
  </g>
  <rect x="38" y="14" width="10" height="92" rx="4" fill="#E8EDF4"/>
  <rect x="72" y="14" width="10" height="92" rx="4" fill="#E8EDF4"/>
  <path d="M63 55 L72 60 L68 66 L78 70 L74 76 L87 81" fill="none" stroke="#0F1D30" stroke-width="10" stroke-linecap="round" stroke-linejoin="round" clip-path="url(#railR)"/>
  <path d="M63 55 L72 60 L68 66 L78 70 L74 76 L87 81" fill="none" stroke="#DC2626" stroke-width="4.5" stroke-linecap="round" stroke-linejoin="round"/>
  <circle cx="77" cy="68" r="18" fill="none" stroke="#DC2626" stroke-width="3.5" stroke-dasharray="6 5" opacity="0.85"/>
</g></g>
  <g transform="translate(106.00,65.50) scale(0.046000,-0.046000)" fill="#F2F5FA">
<path transform="translate(0.0,0)" d="M386 710Q511 710 600.0 644.0Q689 578 719 464H531Q510 508 471.5 531.0Q433 554 384 554Q305 554 256.0 499.0Q207 444 207 352Q207 260 256.0 205.0Q305 150 384 150Q433 150 471.5 173.0Q510 196 531 240H719Q689 126 600.0 60.5Q511 -5 386 -5Q284 -5 203.5 40.5Q123 86 78.0 167.0Q33 248 33 352Q33 456 78.0 537.5Q123 619 203.5 664.5Q284 710 386 710Z"/>
<path transform="translate(762.0,0)" d="M408 564V383H361Q297 383 265.0 355.5Q233 328 233 259V0H62V558H233V465Q263 511 308.0 537.5Q353 564 408 564Z"/>
<path transform="translate(1190.0,0)" d="M274 566Q333 566 377.5 542.0Q422 518 446 479V558H617V0H446V79Q421 40 376.5 16.0Q332 -8 273 -8Q205 -8 149.0 27.5Q93 63 60.5 128.5Q28 194 28 280Q28 366 60.5 431.0Q93 496 149.0 531.0Q205 566 274 566ZM324 417Q273 417 237.5 380.5Q202 344 202 280Q202 216 237.5 178.5Q273 141 324 141Q375 141 410.5 178.0Q446 215 446 279Q446 343 410.5 380.0Q375 417 324 417Z"/>
<path transform="translate(1869.0,0)" d="M308 566Q413 566 483.5 511.0Q554 456 576 356H394Q371 420 305 420Q258 420 230.0 383.5Q202 347 202 279Q202 211 230.0 174.5Q258 138 305 138Q371 138 394 202H576Q554 104 483.0 48.0Q412 -8 308 -8Q226 -8 162.5 27.0Q99 62 63.5 127.0Q28 192 28 279Q28 366 63.5 431.0Q99 496 162.5 531.0Q226 566 308 566Z"/>
<path transform="translate(2474.0,0)" d="M403 0 233 234V0H62V740H233V331L402 558H613L381 278L615 0Z"/>
</g>
  <g transform="translate(250.23,65.50) scale(0.046000,-0.046000)" fill="#93A3BC">
<path transform="translate(0.0,0)" d="M807 695V0H693V476L481 0H402L189 476V0H75V695H198L442 150L685 695Z"/>
<path transform="translate(882.0,0)" d="M38 276Q38 360 75.0 425.0Q112 490 176.0 525.0Q240 560 319 560Q398 560 462.0 525.0Q526 490 563.0 425.0Q600 360 600 276Q600 192 562.0 127.0Q524 62 458.5 26.5Q393 -9 314 -9Q236 -9 173.0 26.5Q110 62 74.0 126.5Q38 191 38 276ZM483 276Q483 336 460.0 377.5Q437 419 399.0 440.0Q361 461 317 461Q273 461 235.5 440.0Q198 419 176.0 377.5Q154 336 154 276Q154 187 199.5 138.5Q245 90 314 90Q358 90 396.5 111.0Q435 132 459.0 174.0Q483 216 483 276Z"/>
<path transform="translate(1520.0,0)" d="M579 325V0H466V308Q466 382 429.0 421.5Q392 461 328 461Q264 461 226.5 421.5Q189 382 189 308V0H75V551H189V488Q217 522 260.5 541.0Q304 560 353 560Q418 560 469.5 533.0Q521 506 550.0 453.0Q579 400 579 325Z"/>
<path transform="translate(2169.0,0)" d="M60 697Q60 728 81.0 749.0Q102 770 133 770Q163 770 184.0 749.0Q205 728 205 697Q205 666 184.0 645.0Q163 624 133 624Q102 624 81.0 645.0Q60 666 60 697ZM189 551V0H75V551Z"/>
<path transform="translate(2433.0,0)" d="M208 458V153Q208 122 222.5 108.5Q237 95 272 95H342V0H252Q175 0 134.0 36.0Q93 72 93 153V458H28V551H93V688H208V551H342V458Z"/>
<path transform="translate(2805.0,0)" d="M38 276Q38 360 75.0 425.0Q112 490 176.0 525.0Q240 560 319 560Q398 560 462.0 525.0Q526 490 563.0 425.0Q600 360 600 276Q600 192 562.0 127.0Q524 62 458.5 26.5Q393 -9 314 -9Q236 -9 173.0 26.5Q110 62 74.0 126.5Q38 191 38 276ZM483 276Q483 336 460.0 377.5Q437 419 399.0 440.0Q361 461 317 461Q273 461 235.5 440.0Q198 419 176.0 377.5Q154 336 154 276Q154 187 199.5 138.5Q245 90 314 90Q358 90 396.5 111.0Q435 132 459.0 174.0Q483 216 483 276Z"/>
<path transform="translate(3443.0,0)" d="M354 560V442H325Q258 442 223.5 408.0Q189 374 189 290V0H75V551H189V471Q214 513 255.5 536.5Q297 560 354 560Z"/>
</g>
</svg>